<svg width="640" height="265" viewBox="0 0 640 265" fill="none" xmlns="http://www.w3.org/2000/svg">
<path d="M479.823 190.844V159.355H543.798L438.836 54.3939H597.643V85.8823H515.039L620 190.844H479.823Z" fill="white"/>
<path fill-rule="evenodd" clip-rule="evenodd" d="M395.933 159.355H430.208V20H461.696V190.844H364.445L395.933 159.355Z" fill="white"/>
<path d="M412.659 106.874V137.82H381.714L366.357 122.615L381.714 106.874H412.659Z" fill="white"/>
<path fill-rule="evenodd" clip-rule="evenodd" d="M226.839 54.3939L295.064 122.619L172.382 245.301H217.096L317.421 144.976L350.732 178.287L373.089 155.93L339.778 122.619L408.003 54.3939H363.289L317.421 100.262L271.553 54.3939H226.839ZM386.223 169.065L364.444 190.844H408.003L386.223 169.065Z" fill="white"/>
<path d="M204.928 85.8824V185.112L173.439 216.639V54.3939H259.299V85.8824H204.928ZM221.621 137.82V106.875H252.566L267.923 122.615L252.566 137.82H221.621Z" fill="white"/>
<path d="M124.961 147.494V54.3935H156.45V223.696L20 87.2464V42.5328L124.961 147.494Z" fill="white"/>
</svg>
