<svg width="419" height="158" viewBox="0 0 419 158" fill="none" xmlns="http://www.w3.org/2000/svg">
<path d="M320.863 119.215V97.2422H365.505L292.263 24H403.078V45.9727H345.437L418.679 119.215H320.863Z" fill="white"/>
<path fill-rule="evenodd" clip-rule="evenodd" d="M243 116.567L255.55 104.017L262.325 97.2422H286.242V45.6248V45.6211L286.24 24.0048L286.242 0H308.215V119.215H270.748H243H240.353L243 116.567Z" fill="white"/>
<path d="M274 82.2148H273.379H252.406L241.69 71.6048L252.406 60.6211H274V82.2148Z" fill="white"/>
<path fill-rule="evenodd" clip-rule="evenodd" d="M144.332 24L191.939 71.6074L106.332 157.215H137.533L207.54 87.208L230.784 110.452L246.385 94.8517L223.14 71.6074L270.748 24H239.547L207.54 56.0068L175.533 24H144.332ZM255.55 104.017L240.352 119.215H270.748L255.55 104.017Z" fill="white"/>
<path d="M129.042 45.9727V115.215L107.069 137.215V24H166.284V45.9727H129.042ZM141.311 82.2148H140.69V60.6211H162.284L173 71.6048L162.284 82.2148H141.311Z" fill="white"/>
<path d="M73.2422 88.9658V24H95.2148V142.14L0 46.9248V15.7236L73.2422 88.9658Z" fill="white"/>
</svg>
