<svg width="960" height="361" viewBox="0 0 960 361" fill="none" xmlns="http://www.w3.org/2000/svg">
<path d="M735.716 273.351V222.969H838.076L670.137 55.0303H924.229V105.412H792.061L960 273.351H735.716Z" fill="white"/>
<path fill-rule="evenodd" clip-rule="evenodd" d="M601.492 222.969H656.333V0H706.714V273.351H551.111L601.492 222.969Z" fill="white"/>
<path d="M628.262 139V188.513H578.749L554.178 164.185L578.749 139H628.262Z" fill="white"/>
<path fill-rule="evenodd" clip-rule="evenodd" d="M330.942 55.0303L440.103 164.191L243.811 360.482H315.353L475.874 199.962L529.171 253.259L564.942 217.488L511.645 164.191L620.805 55.0303H549.263L475.874 128.42L402.484 55.0303H330.942ZM585.958 238.504L551.111 273.351H620.805L585.958 238.504Z" fill="white"/>
<path d="M295.883 105.412V264.179L245.502 314.624V55.0303H383.57V105.412H295.883ZM322.592 188.513V139H372.105L396.676 164.185L372.105 188.513H322.592Z" fill="white"/>
<path d="M167.939 203.992V55.0303H218.321V325.916L0 107.595V36.0531L167.939 203.992Z" fill="white"/>
</svg>
